<?xml version="1.0" standalone="no"?>
<!DOCTYPE svg PUBLIC "-//W3C//DTD SVG 20010904//EN"
 "http://www.w3.org/TR/2001/REC-SVG-20010904/DTD/svg10.dtd">
<svg version="1.0" xmlns="http://www.w3.org/2000/svg"
 width="200.000000pt" height="200.000000pt" viewBox="0 0 200.000000 200.000000"
 preserveAspectRatio="xMidYMid meet">

<g transform="translate(0.000000,200.000000) scale(0.100000,-0.100000)"
fill="#000000" stroke="none">
<path d="M999 1514 c-7 -8 -14 -40 -17 -70 -4 -49 -7 -54 -28 -54 -28 0 -58
-41 -50 -68 10 -30 -4 -52 -31 -52 -13 0 -37 -12 -52 -28 -15 -15 -40 -33 -55
-40 -50 -22 -56 -101 -9 -116 13 -4 26 -34 47 -106 32 -112 45 -133 95 -149
44 -14 165 -13 215 2 52 16 72 46 100 148 16 58 32 95 50 112 34 34 34 71 0
94 -14 10 -39 30 -55 46 -16 15 -36 27 -43 27 -7 0 -21 9 -31 20 -10 11 -24
20 -31 20 -9 0 -10 8 -1 35 9 29 7 38 -8 55 -19 21 -69 27 -80 10 -4 -6 -11
-8 -16 -5 -15 10 -10 48 11 87 20 38 13 60 -11 32z m81 -133 c13 -25 13 -31 0
-31 -5 0 -10 6 -10 14 0 16 -27 29 -42 19 -7 -3 -8 -1 -4 5 11 19 44 14 56 -7z
m-137 -26 c-3 -9 -8 -14 -10 -11 -3 3 -2 9 2 15 9 16 15 13 8 -4z m121 -50
c-4 -8 -11 -15 -16 -15 -6 0 -5 6 2 15 7 8 14 15 16 15 2 0 1 -7 -2 -15z m-53
-55 c9 0 28 9 42 20 30 24 60 26 77 5 16 -19 5 -34 -20 -28 -11 3 -20 0 -20
-6 0 -11 28 -9 62 4 10 4 24 -1 38 -15 l21 -21 -26 -25 c-17 -15 -21 -24 -12
-24 8 0 17 7 21 15 7 18 47 20 64 3 7 -7 12 -24 12 -40 0 -20 -8 -31 -30 -43
-41 -21 -59 -19 -53 5 3 11 0 20 -6 20 -6 0 -11 -8 -11 -19 0 -27 -23 -42 -72
-48 -42 -5 -42 -5 -20 12 12 9 22 21 22 26 0 6 -11 2 -25 -9 -32 -26 -117 -46
-153 -37 -15 3 -35 14 -45 22 -16 16 -16 17 0 36 18 20 18 20 -7 4 -29 -20
-89 -22 -114 -4 -26 19 -18 68 14 84 23 12 26 10 38 -15 l13 -27 -5 33 c-5 26
-1 38 19 58 28 28 55 31 55 7 1 -11 7 -5 15 14 l13 32 38 -20 c21 -10 46 -19
55 -19z m209 -190 c0 -5 -4 -10 -9 -10 -6 0 -9 -8 -9 -17 4 -57 -45 -173 -73
-173 -15 0 -10 27 6 33 8 4 21 32 30 64 9 32 20 68 25 81 11 25 7 27 -23 10
-20 -10 -21 -10 -8 5 15 18 61 23 61 7z m-379 -82 c10 -29 18 -63 19 -75 0
-12 10 -29 22 -37 12 -9 18 -16 12 -16 -24 0 -44 29 -63 94 -33 108 -25 135
10 34z m272 55 c-13 -2 -33 -2 -45 0 -13 2 -3 4 22 4 25 0 35 -2 23 -4z m-145
-10 c-10 -2 -28 -2 -40 0 -13 2 -5 4 17 4 22 1 32 -1 23 -4z m69 -50 c-3 -10
-5 -2 -5 17 0 19 2 27 5 18 2 -10 2 -26 0 -35z m80 -55 c-3 -7 -5 -2 -5 12 0
14 2 19 5 13 2 -7 2 -19 0 -25z m-90 -50 c-3 -8 -6 -5 -6 6 -1 11 2 17 5 13 3
-3 4 -12 1 -19z m71 -19 c-7 -5 -22 -8 -33 -8 -16 0 -14 3 8 11 15 5 28 17 28
26 1 14 2 13 6 -2 3 -10 -1 -22 -9 -27z m-93 -5 c25 -11 26 -13 9 -14 -40 0
-83 12 -88 26 -6 16 25 11 79 -12z"/>
<path d="M950 1230 c0 -5 4 -10 9 -10 6 0 13 5 16 10 3 6 -1 10 -9 10 -9 0
-16 -4 -16 -10z"/>
<path d="M1030 1221 c0 -5 5 -13 10 -16 6 -3 10 -2 10 4 0 5 -4 13 -10 16 -5
3 -10 2 -10 -4z"/>
<path d="M840 1200 c0 -5 5 -10 10 -10 6 0 10 5 10 10 0 6 -4 10 -10 10 -5 0
-10 -4 -10 -10z"/>
<path d="M1090 1184 c-25 -15 -96 -15 -135 0 -19 7 -19 7 -2 -7 30 -25 90 -30
131 -13 20 8 36 20 36 25 0 6 -1 11 -2 10 -2 -1 -14 -7 -28 -15z"/>
<path d="M886 1162 c-3 -6 -1 -14 5 -17 15 -10 25 3 12 16 -7 7 -13 7 -17 1z"/>
<path d="M780 1139 c0 -11 5 -17 10 -14 6 3 10 13 10 21 0 8 -4 14 -10 14 -5
0 -10 -9 -10 -21z"/>
<path d="M1216 1152 c-3 -6 -1 -14 5 -17 15 -10 25 3 12 16 -7 7 -13 7 -17 1z"/>
<path d="M1110 1105 c0 -9 5 -15 11 -13 6 2 11 8 11 13 0 5 -5 11 -11 13 -6 2
-11 -4 -11 -13z"/>
<path d="M922 1088 c5 -15 28 -18 29 -3 0 6 -7 12 -17 13 -10 3 -15 -1 -12
-10z"/>
<path d="M567 1012 c-10 -10 -17 -23 -17 -29 0 -18 69 -73 93 -75 60 -4 97 10
97 38 0 7 -15 29 -34 48 -29 31 -40 36 -78 36 -31 0 -50 -6 -61 -18z m65 -28
c-12 -8 -20 -20 -17 -25 10 -15 -11 -10 -25 6 -17 20 -4 35 33 35 31 0 31 0 9
-16z m72 -20 c29 -11 16 -24 -24 -24 -29 0 -40 4 -40 15 0 16 35 20 64 9z"/>
<path d="M1400 1001 c0 -9 -8 -12 -25 -9 -37 8 -38 -5 -3 -38 21 -19 29 -23
25 -11 -4 9 -3 17 2 17 5 0 11 -9 14 -20 7 -27 27 -25 27 3 0 24 -39 82 -40
58z"/>
<path d="M1337 924 c-14 -15 -6 -46 19 -71 23 -23 27 -24 41 -10 18 18 9 77
-12 77 -7 0 -20 2 -27 5 -8 3 -17 2 -21 -1z m50 -56 c-3 -8 -6 -5 -6 6 -1 11
2 17 5 13 3 -3 4 -12 1 -19z"/>
<path d="M676 882 c-3 -5 -19 -7 -35 -4 -22 3 -33 0 -37 -12 -8 -20 9 -41 49
-61 33 -17 46 -13 29 8 -14 16 3 38 23 31 19 -8 29 14 15 31 -14 16 -36 20
-44 7z"/>
<path d="M763 860 c-36 -14 -27 -29 12 -23 19 3 35 3 35 0 0 -3 -27 -25 -60
-48 -33 -23 -60 -45 -60 -49 0 -19 16 -16 52 10 38 28 105 56 113 48 2 -2 -25
-25 -61 -51 -66 -48 -76 -69 -34 -75 16 -3 21 0 17 11 -3 9 16 29 54 58 61 45
71 72 31 77 -12 2 -20 8 -16 13 9 15 -16 39 -40 38 -11 0 -31 -4 -43 -9z"/>
<path d="M1302 858 c-17 -17 -15 -73 3 -88 17 -14 43 -7 51 15 7 18 -4 70 -13
61 -3 -3 -11 1 -17 10 -9 12 -14 12 -24 2z m38 -55 c-1 -27 -1 -27 -15 -9 -12
16 -12 22 -2 28 17 11 17 11 17 -19z"/>
<path d="M1225 841 c-7 -12 12 -24 25 -16 11 7 4 25 -10 25 -5 0 -11 -4 -15
-9z"/>
<path d="M1177 769 c-8 -88 24 -132 48 -65 6 19 6 29 -2 34 -6 4 -13 25 -15
46 -5 64 -24 54 -31 -15z"/>
<path d="M945 780 c-19 -21 -14 -50 9 -50 23 0 5 -39 -24 -53 -14 -7 -25 -19
-25 -27 0 -19 90 -25 123 -8 28 14 52 57 52 91 0 57 -95 91 -135 47z m39 -15
c-6 -16 -24 -21 -24 -7 0 11 11 22 21 22 5 0 6 -7 3 -15z m61 -45 c-10 -40
-34 -70 -55 -70 -24 0 -24 0 -3 45 10 21 24 35 35 35 10 0 18 5 18 10 0 6 -7
10 -15 10 -9 0 -12 6 -8 16 10 27 35 -15 28 -46z"/>
<path d="M1234 774 c-7 -29 25 -72 45 -60 17 11 13 57 -6 72 -26 19 -32 17
-39 -12z"/>
<path d="M1118 768 c0 -7 -2 -18 -2 -24 -1 -6 -6 -18 -12 -25 -18 -22 -22 -43
-12 -61 13 -26 35 -22 55 8 15 24 16 29 1 54 -10 18 -12 32 -6 44 7 12 5 16
-7 16 -8 0 -16 -6 -17 -12z m15 -93 c-3 -9 -8 -14 -10 -11 -3 3 -2 9 2 15 9
16 15 13 8 -4z"/>
</g>
</svg>
